<mxfile host="app.diagrams.net" modified="2024-05-27T08:24:27.416Z" agent="Mozilla/5.0 (Macintosh; Intel Mac OS X 10_15_7) AppleWebKit/537.36 (KHTML, like Gecko) Chrome/125.0.0.0 Safari/537.36" version="24.4.4" etag="auMe6-7iXiFcOcDOseRL" type="github">
  <diagram name="Page-1" id="RfVa1SXsrGgdEmLzTAO2">
    <mxGraphModel>
      <root>
        <mxCell id="0" />
        <mxCell id="1" parent="0" />
      </root>
    </mxGraphModel>
  </diagram>
</mxfile>
